<svg width="148" height="29" viewBox="0 0 148 29" fill="none" xmlns="http://www.w3.org/2000/svg">
<path d="M37 20.0942V8.86087H38.9345L44.107 16.1782H44.1675V8.86087H46.3867V20.0942H44.4679L39.2876 12.7357H39.2181V20.0942H37Z" fill="white"/>
<path d="M47.5463 17.6963C47.5463 16.178 48.6949 15.2986 50.7467 15.1742L52.8185 15.0515V14.4996C52.8185 13.7215 52.2817 13.2696 51.4371 13.2696C50.5926 13.2696 50.0715 13.6902 49.9639 14.3053H47.9145C47.9991 12.6858 49.3575 11.5728 51.5369 11.5728C53.6479 11.5728 55.0215 12.6766 55.0215 14.3598V20.097H52.8572V18.8172H52.8112C52.3506 19.7045 51.3301 20.2276 50.3012 20.2276C48.736 20.2264 47.5463 19.1986 47.5463 17.6963ZM52.8185 17.0346V16.4276L51.0841 16.5361C50.248 16.5974 49.7716 16.9801 49.7716 17.5718C49.7716 18.1942 50.2782 18.5836 51.0381 18.5836C52.0126 18.5836 52.8185 17.9373 52.8185 17.0346Z" fill="white"/>
<path d="M59.3038 9.82579V11.7488H60.8236V13.4615H59.3038V17.4547C59.3038 18.093 59.6109 18.3965 60.2711 18.3965C60.4531 18.3975 60.635 18.3846 60.8152 18.3579V20.0314C60.4637 20.1002 60.1061 20.1316 59.7481 20.1252C57.8136 20.1252 57.0622 19.4709 57.0622 17.8441V13.4615H55.9039V11.7488H57.0628V9.82579H59.3038Z" fill="white"/>
<path d="M62.015 9.65467C62.015 8.99302 62.5373 8.47916 63.2126 8.47916C63.8878 8.47916 64.4096 8.99302 64.4096 9.65467C64.4096 10.3163 63.8878 10.8302 63.2126 10.8302C62.5373 10.8302 62.015 10.3083 62.015 9.65467ZM62.0917 11.7488H64.3328V20.0939H62.0917V11.7488Z" fill="white"/>
<path d="M70.5163 20.0938H67.9833L65.1359 11.7487H67.5383L69.2498 18.0856H69.2957L70.9999 11.7487H73.3407L70.5163 20.0938Z" fill="white"/>
<path d="M81.3923 17.5405C81.1468 19.1753 79.673 20.2729 77.6393 20.2729C75.1068 20.2729 73.5888 18.6301 73.5888 15.9602C73.5888 13.2904 75.1238 11.5697 77.5564 11.5697C79.951 11.5697 81.463 13.2119 81.463 15.7499V16.4428H75.7918V16.5826C75.7918 17.7741 76.536 18.5915 77.6798 18.5915C78.5007 18.5915 79.1307 18.1788 79.3374 17.5405H81.3923ZM75.8129 15.049H79.3048C79.2588 13.9827 78.5757 13.2511 77.5782 13.2511C76.5958 13.2511 75.8897 14.006 75.8129 15.049Z" fill="white"/>
<path d="M88.2305 20.0942H85.9126V8.86087H90.4467C92.9943 8.86087 94.453 10.2228 94.453 12.442C94.453 13.8818 93.7161 15.1272 92.4417 15.6306L94.7752 20.0911H92.1503L90.0858 15.9826H88.2286L88.2305 20.0942ZM88.2305 14.2791H90.2254C91.3922 14.2791 92.0753 13.6016 92.0753 12.4886C92.0753 11.3983 91.3541 10.698 90.2013 10.698H88.2292L88.2305 14.2791Z" fill="white"/>
<path d="M95.4057 15.9136C95.4057 13.2119 97.0174 11.5697 99.4809 11.5697C101.944 11.5697 103.556 13.2045 103.556 15.9136C103.556 18.6614 101.967 20.2729 99.4809 20.2729C96.9945 20.2729 95.4057 18.6534 95.4057 15.9136ZM101.277 15.921C101.277 14.2653 100.571 13.3057 99.4809 13.3057C98.391 13.3057 97.6776 14.2629 97.6776 15.921C97.6776 17.595 98.3758 18.5369 99.4809 18.5369C100.586 18.5369 101.277 17.595 101.277 15.921Z" fill="white"/>
<path d="M107.018 18.6617H106.972V20.0942H104.761V8.86087H107.002V13.1968H107.049C107.502 12.2084 108.415 11.6166 109.588 11.6166C111.66 11.6166 112.934 13.2281 112.934 15.9213C112.934 18.6145 111.665 20.2266 109.595 20.2266C108.392 20.2266 107.471 19.6349 107.018 18.6617ZM106.995 15.9213C106.995 17.4316 107.731 18.3968 108.821 18.3968C109.942 18.3968 110.64 17.4476 110.64 15.9213C110.64 14.395 109.934 13.4384 108.821 13.4384C107.739 13.4384 106.995 14.4269 106.995 15.9213Z" fill="white"/>
<path d="M113.795 15.9136C113.795 13.2119 115.407 11.5697 117.87 11.5697C120.334 11.5697 121.946 13.2045 121.946 15.9136C121.946 18.6614 120.357 20.2729 117.87 20.2729C115.384 20.2729 113.795 18.6534 113.795 15.9136ZM119.667 15.921C119.667 14.2653 118.96 13.3057 117.87 13.3057C116.78 13.3057 116.067 14.2629 116.067 15.921C116.067 17.595 116.765 18.5369 117.87 18.5369C118.976 18.5369 119.667 17.595 119.667 15.921Z" fill="white"/>
<path d="M125.937 9.82579V11.7488H127.456V13.4615H125.937V17.4547C125.937 18.093 126.244 18.3965 126.904 18.3965C127.086 18.3975 127.268 18.3846 127.448 18.3579V20.0314C127.097 20.1002 126.739 20.1316 126.381 20.1252C124.447 20.1252 123.695 19.4709 123.695 17.8441V13.4615H122.536V11.7488H123.695V9.82579H125.937Z" fill="white"/>
<path d="M128.646 9.65467C128.646 8.99302 129.168 8.47916 129.844 8.47916C130.52 8.47916 131.041 8.99302 131.041 9.65467C131.041 10.3163 130.519 10.8302 129.844 10.8302C129.169 10.8302 128.646 10.3083 128.646 9.65467ZM128.723 11.7488H130.964V20.0939H128.723V11.7488Z" fill="white"/>
<path d="M137.848 14.8547C137.717 13.9753 137.141 13.3523 136.22 13.3523C135.115 13.3523 134.425 14.3022 134.425 15.9137C134.425 17.5558 135.115 18.4891 136.228 18.4891C137.126 18.4891 137.709 17.944 137.848 17.0334H139.935C139.82 19.003 138.369 20.2717 136.205 20.2717C133.726 20.2717 132.155 18.6369 132.155 15.9124C132.155 13.234 133.726 11.5685 136.192 11.5685C138.417 11.5685 139.829 12.9617 139.929 14.8534L137.848 14.8547Z" fill="white"/>
<path d="M144.349 11.5697C146.413 11.5697 147.756 12.6281 147.787 14.2476H145.722C145.676 13.5779 145.147 13.1653 144.318 13.1653C143.543 13.1653 143.036 13.5234 143.036 14.0605C143.036 14.4732 143.389 14.7535 144.11 14.9245L145.682 15.2673C147.332 15.6408 148 16.3024 148 17.5484C148 19.1906 146.511 20.2729 144.339 20.2729C142.144 20.2729 140.793 19.1986 140.671 17.5717H142.858C142.965 18.272 143.51 18.6755 144.401 18.6755C145.252 18.6755 145.766 18.3333 145.766 17.7882C145.766 17.3682 145.49 17.1345 144.754 16.9555L143.234 16.6127C141.676 16.2546 140.876 15.4298 140.876 14.1997C140.879 12.6128 142.237 11.5697 144.349 11.5697Z" fill="white"/>
<g style="mix-blend-mode:multiply">
<path fill-rule="evenodd" clip-rule="evenodd" d="M6.73918 6.63138V28.5208H0V0H19.9384C21.1934 0.00148777 22.3965 0.493929 23.2831 1.36907C24.1698 2.24421 24.6674 3.43042 24.6667 4.66694V28.5208H17.9275L13.7148 18.4629H17.9332V8.39938C17.9324 7.9307 17.7431 7.48144 17.4068 7.15004C17.0704 6.81863 16.6144 6.63212 16.1387 6.63138H6.73918ZM12.634 11.7803H11.1001V14.2604H13.5668V12.7182C13.5668 12.4694 13.4685 12.2309 13.2936 12.055C13.1186 11.8791 12.8814 11.7803 12.634 11.7803Z" fill="white"/>
</g>
</svg>
