<svg width="192" height="37" viewBox="0 0 192 37" fill="none" xmlns="http://www.w3.org/2000/svg">
<path d="M48 26.0681V11.4952H50.5097L57.2199 20.988H57.2983V11.4952H60.1774V26.0681H57.6881L50.9677 16.522H50.8775V26.0681H48Z" fill="#222222"/>
<path d="M61.6817 22.9573C61.6817 20.9877 63.1718 19.8469 65.8336 19.6854L68.5213 19.5263V18.8104C68.5213 17.8009 67.8249 17.2146 66.7292 17.2146C65.6336 17.2146 64.9576 17.7603 64.818 18.5582H62.1593C62.2691 16.4572 64.0313 15.0134 66.8586 15.0134C69.5973 15.0134 71.3792 16.4453 71.3792 18.629V26.0718H68.5715V24.4115H68.5119C67.9143 25.5626 66.5904 26.2412 65.2556 26.2412C63.2251 26.2396 61.6817 24.9063 61.6817 22.9573ZM68.5213 22.099V21.3114L66.2712 21.4522C65.1866 21.5318 64.5686 22.0282 64.5686 22.7959C64.5686 23.6033 65.2258 24.1084 66.2116 24.1084C67.4759 24.1084 68.5213 23.27 68.5213 22.099Z" fill="#222222"/>
<path d="M76.9347 12.747V15.2417H78.9063V17.4636H76.9347V22.6439C76.9347 23.472 77.3331 23.8658 78.1895 23.8658C78.4257 23.867 78.6616 23.8503 78.8953 23.8157V25.9866C78.4394 26.0759 77.9754 26.1167 77.5111 26.1083C75.0014 26.1083 74.0266 25.2595 74.0266 23.149V17.4636H72.5239V15.2417H74.0274V12.747H76.9347Z" fill="#222222"/>
<path d="M80.4518 12.525C80.4518 11.6666 81.1295 11 82.0055 11C82.8815 11 83.5583 11.6666 83.5583 12.525C83.5583 13.3833 82.8815 14.05 82.0055 14.05C81.1295 14.05 80.4518 13.373 80.4518 12.525ZM80.5514 15.2416H83.4587V26.0677H80.5514V15.2416Z" fill="#222222"/>
<path d="M91.4806 26.0677H88.1945L84.5006 15.2416H87.6173L89.8375 23.4624H89.8971L92.108 15.2416H95.1447L91.4806 26.0677Z" fill="#222222"/>
<path d="M105.59 22.7552C105.272 24.876 103.359 26.3 100.721 26.3C97.4359 26.3 95.4666 24.1688 95.4666 20.7052C95.4666 17.2415 97.4578 15.0094 100.614 15.0094C103.72 15.0094 105.682 17.1397 105.682 20.4323V21.3313H98.3245V21.5126C98.3245 23.0583 99.2899 24.1187 100.774 24.1187C101.839 24.1187 102.656 23.5833 102.924 22.7552H105.59ZM98.3519 19.5231H102.882C102.822 18.1397 101.936 17.1906 100.642 17.1906C99.3675 17.1906 98.4515 18.1699 98.3519 19.5231Z" fill="#222222"/>
<path d="M114.461 26.0681H111.454V11.4952H117.336C120.641 11.4952 122.534 13.262 122.534 16.141C122.534 18.0088 121.578 19.6245 119.924 20.2776L122.952 26.0641H119.546L116.868 20.7342H114.459L114.461 26.0681ZM114.461 18.5243H117.049C118.563 18.5243 119.449 17.6453 119.449 16.2014C119.449 14.787 118.513 13.8785 117.018 13.8785H114.46L114.461 18.5243Z" fill="#222222"/>
<path d="M123.77 20.6447C123.77 17.1397 125.86 15.0094 129.056 15.0094C132.252 15.0094 134.343 17.1302 134.343 20.6447C134.343 24.2094 132.282 26.3 129.056 26.3C125.831 26.3 123.77 24.1991 123.77 20.6447ZM131.386 20.6543C131.386 18.5064 130.47 17.2614 129.056 17.2614C127.642 17.2614 126.717 18.5032 126.717 20.6543C126.717 22.826 127.623 24.0479 129.056 24.0479C130.49 24.0479 131.386 22.826 131.386 20.6543Z" fill="#222222"/>
<path d="M138.834 24.2098H138.775V26.0681H135.906V11.4952H138.814V17.1202H138.874C139.462 15.8379 140.646 15.0702 142.168 15.0702C144.856 15.0702 146.509 17.1608 146.509 20.6547C146.509 24.1486 144.862 26.2399 142.178 26.2399C140.616 26.2399 139.422 25.4723 138.834 24.2098ZM138.804 20.6547C138.804 22.614 139.76 23.8661 141.174 23.8661C142.628 23.8661 143.534 22.6347 143.534 20.6547C143.534 18.6747 142.617 17.4337 141.174 17.4337C139.77 17.4337 138.804 18.716 138.804 20.6547Z" fill="#222222"/>
<path d="M147.626 20.6447C147.626 17.1397 149.717 15.0094 152.913 15.0094C156.109 15.0094 158.2 17.1302 158.2 20.6447C158.2 24.2094 156.139 26.3 152.913 26.3C149.687 26.3 147.626 24.1991 147.626 20.6447ZM155.243 20.6543C155.243 18.5064 154.327 17.2614 152.913 17.2614C151.499 17.2614 150.574 18.5032 150.574 20.6543C150.574 22.826 151.479 24.0479 152.913 24.0479C154.347 24.0479 155.243 22.826 155.243 20.6543Z" fill="#222222"/>
<path d="M163.378 12.747V15.2417H165.348V17.4636H163.378V22.6439C163.378 23.472 163.776 23.8658 164.632 23.8658C164.869 23.867 165.105 23.8502 165.338 23.8157V25.9866C164.882 26.0759 164.418 26.1167 163.954 26.1083C161.444 26.1083 160.47 25.2595 160.47 23.149V17.4636H158.966V15.2417H160.47V12.747H163.378Z" fill="#222222"/>
<path d="M166.893 12.525C166.893 11.6666 167.569 11 168.446 11C169.323 11 169.999 11.6666 169.999 12.525C169.999 13.3833 169.322 14.05 168.446 14.05C167.57 14.05 166.893 13.373 166.893 12.525ZM166.992 15.2416H169.899V26.0677H166.992V15.2416Z" fill="#222222"/>
<path d="M178.829 19.2709C178.66 18.1302 177.913 17.3219 176.718 17.3219C175.284 17.3219 174.389 18.5542 174.389 20.6448C174.389 22.7751 175.284 23.9859 176.728 23.9859C177.893 23.9859 178.65 23.2787 178.829 22.0973H181.537C181.388 24.6525 179.506 26.2984 176.698 26.2984C173.483 26.2984 171.444 24.1776 171.444 20.6432C171.444 17.1684 173.483 15.0078 176.681 15.0078C179.568 15.0078 181.4 16.8152 181.529 19.2693L178.829 19.2709Z" fill="#222222"/>
<path d="M187.263 15.0094C189.941 15.0094 191.683 16.3824 191.723 18.4833H189.045C188.985 17.6146 188.298 17.0793 187.223 17.0793C186.218 17.0793 185.56 17.5438 185.56 18.2407C185.56 18.7761 186.018 19.1396 186.954 19.3616L188.993 19.8063C191.133 20.2907 192 21.1491 192 22.7656C192 24.8959 190.068 26.3 187.25 26.3C184.403 26.3 182.651 24.9063 182.491 22.7958H185.329C185.469 23.7043 186.175 24.2277 187.33 24.2277C188.435 24.2277 189.102 23.7838 189.102 23.0766C189.102 22.5317 188.744 22.2286 187.788 21.9963L185.817 21.5516C183.796 21.087 182.758 20.0171 182.758 18.4213C182.762 16.3625 184.524 15.0094 187.263 15.0094Z" fill="#222222"/>
<g style="mix-blend-mode:multiply">
<path d="M14.4 15.2826H16.3899C16.7109 15.2826 17.0187 15.4108 17.2456 15.6389C17.4725 15.8671 17.6 16.1766 17.6 16.4993V18.5H14.4V15.2826Z" fill="#222222"/>
</g>
<g style="mix-blend-mode:multiply">
<path fill-rule="evenodd" clip-rule="evenodd" d="M8.74273 37V8.60287H20.9367C21.5538 8.60384 22.1454 8.84579 22.5817 9.27572C23.0181 9.70565 23.2637 10.2885 23.2647 10.8965V23.9519H17.7921L23.2573 37H32V6.05441C32.001 4.45028 31.3554 2.91141 30.2052 1.77609C29.0549 0.640772 27.4942 0.00193008 25.8661 0L0 0V37H8.74273Z" fill="#222222"/>
</g>
</svg>
