<svg width="128" height="25" viewBox="0 0 128 25" fill="none" xmlns="http://www.w3.org/2000/svg">
<g style="mix-blend-mode:multiply">
<path fill-rule="evenodd" clip-rule="evenodd" d="M5.82849 5.73525V24.6667H0V0H17.244C18.3295 0.00128672 19.37 0.427182 20.1368 1.18406C20.9036 1.94094 21.334 2.96685 21.3333 4.03628V24.6667H15.5049L11.8614 15.9679H15.5098V7.26433C15.5091 6.85899 15.3454 6.47043 15.0545 6.18382C14.7636 5.8972 14.3692 5.73589 13.9578 5.73525H5.82849ZM10.9266 10.1885H9.60001V12.3334H11.7333V10.9996C11.7333 10.7845 11.6483 10.5782 11.4971 10.426C11.3458 10.2739 11.1406 10.1885 10.9266 10.1885ZM54.6703 6.8335C54.0863 6.8335 53.6346 7.31278 53.6346 7.92989C53.6346 8.53957 54.0863 9.02629 54.6703 9.02629C55.2543 9.02629 55.7056 8.54701 55.7056 7.92989C55.7056 7.31278 55.2543 6.8335 54.6703 6.8335ZM55.6392 9.88305H53.701V17.6665H55.6392V9.88305ZM32 7.18952V17.6668H33.9183V10.8036H33.9785L38.4587 17.6668H40.1183V7.18952H38.1989V14.0144H38.1466L33.6731 7.18952H32ZM43.8891 13.0779C42.1145 13.194 41.1211 14.0142 41.1211 15.4303C41.1211 16.8315 42.1501 17.7901 43.5037 17.7912C44.3936 17.7912 45.2762 17.3034 45.6746 16.4758H45.7143V17.6694H47.5861V12.3184C47.5861 10.7484 46.3982 9.71895 44.5724 9.71895C42.6876 9.71895 41.5127 10.757 41.4395 12.2675H43.212C43.305 11.6938 43.7557 11.3015 44.4862 11.3015C45.2166 11.3015 45.6809 11.723 45.6809 12.4488V12.9635L43.8891 13.0779ZM45.6809 14.2469V14.8132C45.6809 15.655 44.9839 16.2579 44.1411 16.2579C43.4839 16.2579 43.0457 15.8947 43.0457 15.3142C43.0457 14.7623 43.4577 14.4054 44.1808 14.3482L45.6809 14.2469ZM51.2898 8.0895V9.88308H52.6042V11.4805H51.2898V15.2049C51.2898 15.8003 51.5554 16.0834 52.1263 16.0834C52.2838 16.0843 52.4411 16.0723 52.5969 16.0474V17.6082C52.2929 17.6724 51.9836 17.7017 51.6741 17.6957C50.001 17.6957 49.3511 17.0854 49.3511 15.5681V11.4805H48.3493V9.88308H49.3516V8.0895H51.2898ZM60.9871 17.6665H58.7963L56.3337 9.88303H58.4115L59.8917 15.7934H59.9314L61.4053 9.88303H63.4298L60.9871 17.6665ZM67.1475 17.8335C68.9063 17.8335 70.181 16.8097 70.3933 15.285H68.6162C68.4373 15.8803 67.8925 16.2653 67.1825 16.2653C66.1933 16.2653 65.5497 15.5029 65.5497 14.3916V14.2612H70.4545V13.6149C70.4545 11.2477 69.1469 9.71604 67.0759 9.71604C64.9719 9.71604 63.6444 11.3209 63.6444 13.8111C63.6444 16.3013 64.9573 17.8335 67.1475 17.8335ZM68.5879 12.9612H65.568C65.6344 11.9883 66.245 11.2843 67.0947 11.2843C67.9574 11.2843 68.5482 11.9666 68.5879 12.9612ZM76.3074 17.6668H74.3028V7.18952H78.2242C80.4275 7.18952 81.6891 8.45979 81.6891 10.5296C81.6891 11.8725 81.0517 13.0341 79.9496 13.5037L81.9678 17.6639H79.6976L77.912 13.832H76.3058L76.3074 17.6668ZM76.3074 12.2431H78.0328C79.0419 12.2431 79.6327 11.6111 79.6327 10.5731C79.6327 9.55619 79.009 8.90304 78.0119 8.90304H76.3064L76.3074 12.2431ZM86.0376 9.71604C83.907 9.71604 82.513 11.2477 82.513 13.7676C82.513 16.323 83.8871 17.8335 86.0376 17.8335C88.188 17.8335 89.5621 16.3305 89.5621 13.7676C89.5621 11.2408 88.1682 9.71604 86.0376 9.71604ZM86.0376 11.3352C86.9803 11.3352 87.591 12.2303 87.591 13.7745C87.591 15.3359 86.9933 16.2144 86.0376 16.2144C85.0818 16.2144 84.4779 15.3359 84.4779 13.7745C84.4779 12.228 85.0949 11.3352 86.0376 11.3352ZM92.5561 16.3307H92.5164V17.6668H90.6043V7.18952H92.5425V11.2337H92.5828C92.9744 10.3117 93.7639 9.75979 94.7787 9.75979C96.5705 9.75979 97.6727 11.2628 97.6727 13.7748C97.6727 16.2867 96.5747 17.7903 94.785 17.7903C93.744 17.7903 92.9477 17.2384 92.5561 16.3307ZM92.5363 13.7748C92.5363 15.1834 93.1731 16.0837 94.1158 16.0837C95.0851 16.0837 95.689 15.1983 95.689 13.7748C95.689 12.3512 95.0783 11.459 94.1158 11.459C93.1799 11.459 92.5363 12.381 92.5363 13.7748ZM101.942 9.71604C99.8114 9.71604 98.4175 11.2477 98.4175 13.7676C98.4175 16.323 99.7915 17.8335 101.942 17.8335C104.092 17.8335 105.467 16.3305 105.467 13.7676C105.467 11.2408 104.073 9.71604 101.942 9.71604ZM101.942 11.3352C102.885 11.3352 103.495 12.2303 103.495 13.7745C103.495 15.3359 102.898 16.2144 101.942 16.2144C100.986 16.2144 100.382 15.3359 100.382 13.7745C100.382 12.228 100.999 11.3352 101.942 11.3352ZM108.918 8.0895V9.88308H110.232V11.4805H108.918V15.2049C108.918 15.8003 109.184 16.0834 109.755 16.0834C109.912 16.0843 110.07 16.0722 110.226 16.0474V17.6082C109.922 17.6724 109.612 17.7017 109.303 17.6957C107.63 17.6957 106.98 17.0854 106.98 15.5681V11.4805H105.977V9.88308H106.98V8.0895H108.918ZM112.298 6.8335C111.713 6.8335 111.262 7.31278 111.262 7.92989C111.262 8.53957 111.713 9.02629 112.298 9.02629C112.882 9.02629 113.333 8.54701 113.333 7.92989C113.333 7.31278 112.882 6.8335 112.298 6.8335ZM113.266 9.88305H111.328V17.6665H113.266V9.88305ZM119.219 12.7799C119.107 11.9597 118.609 11.3787 117.812 11.3787C116.856 11.3787 116.259 12.2646 116.259 13.7676C116.259 15.2993 116.856 16.1698 117.819 16.1698C118.595 16.1698 119.1 15.6613 119.219 14.812H121.025C120.926 16.649 119.671 17.8324 117.799 17.8324C115.655 17.8324 114.296 16.3076 114.296 13.7665C114.296 11.2683 115.655 9.71491 117.787 9.71491C119.712 9.71491 120.933 11.0143 121.02 12.7788L119.219 12.7799ZM127.815 12.2137C127.789 10.7032 126.628 9.71604 124.842 9.71604C123.016 9.71604 121.841 10.6889 121.839 12.1691C121.839 13.3164 122.531 14.0856 123.878 14.4196L125.192 14.7393C125.829 14.9063 126.068 15.1242 126.068 15.516C126.068 16.0245 125.624 16.3436 124.887 16.3436C124.117 16.3436 123.646 15.9673 123.553 15.3141H121.661C121.767 16.8315 122.935 17.8335 124.834 17.8335C126.712 17.8335 128 16.824 128 15.2924C128 14.1302 127.422 13.5131 125.995 13.1648L124.636 12.8451C124.012 12.6855 123.707 12.4241 123.707 12.0392C123.707 11.5382 124.145 11.2042 124.815 11.2042C125.532 11.2042 125.99 11.5891 126.03 12.2137H127.815Z" fill="#222222"/>
</g>
</svg>
