<svg width="98" height="10" viewBox="0 0 98 10" fill="none" xmlns="http://www.w3.org/2000/svg">
<path d="M0 9.84844V0.323661H1.70797L6.27465 6.5281H6.32803V0.323661H8.28739V9.84844H6.5933L2.01968 3.60916H1.95829V9.84844H0Z" fill="#A7A7A7"/>
<path d="M9.31114 7.81526C9.31114 6.52788 10.3252 5.78229 12.1368 5.67674L13.9659 5.57275V5.10481C13.9659 4.44501 13.4919 4.06181 12.7463 4.06181C12.0007 4.06181 11.5406 4.41849 11.4456 4.93999H9.63619C9.71091 3.56683 10.9102 2.62314 12.8344 2.62314C14.6982 2.62314 15.9108 3.55903 15.9108 4.98626V9.85082H14V8.76571H13.9595C13.5528 9.51806 12.6518 9.96157 11.7434 9.96157C10.3615 9.96053 9.31114 9.08911 9.31114 7.81526ZM13.9659 7.25424V6.7395L12.4346 6.83153C11.6964 6.88352 11.2758 7.20797 11.2758 7.70971C11.2758 8.23745 11.7231 8.56761 12.394 8.56761C13.2544 8.56761 13.9659 8.01959 13.9659 7.25424Z" fill="#A7A7A7"/>
<path d="M19.6917 1.14182V2.77235H21.0335V4.22455H19.6917V7.61039C19.6917 8.15165 19.9628 8.40902 20.5456 8.40902C20.7064 8.40983 20.8669 8.39888 21.026 8.37627V9.79518C20.7157 9.85356 20.4 9.88022 20.084 9.87473C18.376 9.87473 17.7125 9.31996 17.7125 7.94056V4.22455H16.6899V2.77235H17.7131V1.14182H19.6917Z" fill="#A7A7A7"/>
<path d="M22.0853 0.996725C22.0853 0.43571 22.5464 0 23.1426 0C23.7388 0 24.1994 0.43571 24.1994 0.996725C24.1994 1.55774 23.7388 1.99345 23.1426 1.99345C22.5464 1.99345 22.0853 1.55098 22.0853 0.996725ZM22.1531 2.77232H24.1316V9.84818H22.1531V2.77232Z" fill="#A7A7A7"/>
<path d="M29.591 9.84817H27.3546L24.8407 2.77231H26.9618L28.4728 8.14537H28.5133L30.018 2.77231H32.0846L29.591 9.84817Z" fill="#A7A7A7"/>
<path d="M39.1932 7.68315C38.9765 9.06931 37.6752 10 35.8797 10C33.6439 10 32.3037 8.60708 32.3037 6.34326C32.3037 4.07944 33.6588 2.62049 35.8066 2.62049C37.9207 2.62049 39.2556 4.01289 39.2556 6.16492V6.75246H34.2486V6.871C34.2486 7.88125 34.9056 8.57433 35.9155 8.57433C36.6403 8.57433 37.1965 8.22441 37.379 7.68315H39.1932ZM34.2673 5.57063H37.3502C37.3096 4.66646 36.7065 4.04617 35.8258 4.04617C34.9585 4.04617 34.3351 4.68621 34.2673 5.57063Z" fill="#A7A7A7"/>
<path d="M45.2305 9.84844H43.1841V0.323661H47.1872C49.4364 0.323661 50.7243 1.47845 50.7243 3.36011C50.7243 4.58093 50.0737 5.63693 48.9485 6.0638L51.0088 9.84584H48.6913L46.8685 6.36224H45.2289L45.2305 9.84844ZM45.2305 4.91785H46.9918C48.022 4.91785 48.6251 4.34332 48.6251 3.39963C48.6251 2.47517 47.9883 1.8814 46.9705 1.8814H45.2294L45.2305 4.91785Z" fill="#A7A7A7"/>
<path d="M51.5654 6.30375C51.5654 4.01289 52.9884 2.62049 55.1634 2.62049C57.3384 2.62049 58.7613 4.00665 58.7613 6.30375C58.7613 8.6336 57.3586 10 55.1634 10C52.9681 10 51.5654 8.62684 51.5654 6.30375ZM56.7491 6.30999C56.7491 4.90615 56.1257 4.09244 55.1634 4.09244C54.201 4.09244 53.5712 4.90407 53.5712 6.30999C53.5712 7.72942 54.1877 8.52805 55.1634 8.52805C56.139 8.52805 56.7491 7.72942 56.7491 6.30999Z" fill="#A7A7A7"/>
<path d="M61.8177 8.63386H61.7771V9.84844H59.8253V0.323661H61.8038V4.00016H61.8449C62.2447 3.16201 63.0506 2.66027 64.0866 2.66027C65.9158 2.66027 67.0409 4.02667 67.0409 6.31025C67.0409 8.59383 65.92 9.96075 64.093 9.96075C63.0304 9.96075 62.2175 9.459 61.8177 8.63386ZM61.7974 6.31025C61.7974 7.59086 62.4475 8.40925 63.4099 8.40925C64.3994 8.40925 65.0159 7.60438 65.0159 6.31025C65.0159 5.01612 64.3925 4.20501 63.4099 4.20501C62.4545 4.20501 61.7974 5.04316 61.7974 6.31025Z" fill="#A7A7A7"/>
<path d="M67.8012 6.30375C67.8012 4.01289 69.2242 2.62049 71.3991 2.62049C73.5741 2.62049 74.9971 4.00665 74.9971 6.30375C74.9971 8.6336 73.5944 10 71.3991 10C69.2039 10 67.8012 8.62684 67.8012 6.30375ZM72.9849 6.30999C72.9849 4.90615 72.3615 4.09244 71.3991 4.09244C70.4368 4.09244 69.807 4.90407 69.807 6.30999C69.807 7.72942 70.4235 8.52805 71.3991 8.52805C72.3748 8.52805 72.9849 7.72942 72.9849 6.30999Z" fill="#A7A7A7"/>
<path d="M78.5209 1.14182V2.77235H79.8622V4.22455H78.5209V7.61039C78.5209 8.15165 78.792 8.40902 79.3749 8.40902C79.5356 8.4098 79.6962 8.39885 79.8552 8.37627V9.79518C79.5449 9.85356 79.2292 9.88022 78.9132 9.87473C77.2052 9.87473 76.5418 9.31996 76.5418 7.94056V4.22455H75.5186V2.77235H76.5418V1.14182H78.5209Z" fill="#A7A7A7"/>
<path d="M80.913 0.996725C80.913 0.43571 81.3737 0 81.9704 0C82.5671 0 83.0272 0.43571 83.0272 0.996725C83.0272 1.55774 82.5666 1.99345 81.9704 1.99345C81.3742 1.99345 80.913 1.55098 80.913 0.996725ZM80.9808 2.77232H82.9594V9.84818H80.9808V2.77232Z" fill="#A7A7A7"/>
<path d="M89.0365 5.40582C88.9213 4.66023 88.4131 4.13197 87.5997 4.13197C86.624 4.13197 86.0145 4.93736 86.0145 6.30376C86.0145 7.69616 86.624 8.48751 87.6067 8.48751C88.3993 8.48751 88.9143 8.02528 89.0365 7.25317H90.8795C90.7781 8.92322 89.4972 9.99897 87.5864 9.99897C85.398 9.99897 84.0103 8.61281 84.0103 6.30272C84.0103 4.03162 85.398 2.61947 87.5746 2.61947C89.5393 2.61947 90.7861 3.80077 90.8742 5.40478L89.0365 5.40582Z" fill="#A7A7A7"/>
<path d="M94.7762 2.62049C96.5989 2.62049 97.7844 3.51791 97.8116 4.89107H95.9889C95.9483 4.3233 95.4808 3.97338 94.749 3.97338C94.0647 3.97338 93.6175 4.27702 93.6175 4.73249C93.6175 5.08241 93.9292 5.32002 94.5659 5.46509L95.9536 5.75573C97.4102 6.07238 98 6.63339 98 7.68991C98 9.08231 96.6854 10 94.7677 10C92.8297 10 91.6373 9.08907 91.5289 7.70967H93.46C93.555 8.30344 94.0359 8.64556 94.8221 8.64556C95.5742 8.64556 96.0278 8.35543 96.0278 7.8932C96.0278 7.53705 95.7839 7.33895 95.1338 7.18713L93.792 6.89648C92.4166 6.59283 91.7104 5.89352 91.7104 4.85052C91.7131 3.50491 92.9119 2.62049 94.7762 2.62049Z" fill="#A7A7A7"/>
</svg>
