<svg width="192" height="37" viewBox="0 0 192 37" fill="none" xmlns="http://www.w3.org/2000/svg">
<path fill-rule="evenodd" clip-rule="evenodd" d="M8.74273 37V8.60287H20.9367C21.5538 8.60384 22.1454 8.84579 22.5817 9.27572C23.0181 9.70565 23.2637 10.2885 23.2647 10.8965V23.9519H17.7921L23.2573 37H32V6.05441C32.001 4.45028 31.3554 2.91141 30.2052 1.77609C29.0549 0.640772 27.4942 0.00193008 25.8661 0H0V37H8.74273ZM14.4 15.2826H16.3899C16.7109 15.2826 17.0187 15.4108 17.2456 15.639C17.4725 15.8671 17.6 16.1766 17.6 16.4993V18.5H14.4V15.2826ZM82.0055 11C81.1295 11 80.4518 11.6666 80.4518 12.525C80.4518 13.373 81.1295 14.05 82.0055 14.05C82.8815 14.05 83.5583 13.3833 83.5583 12.525C83.5583 11.6666 82.8815 11 82.0055 11ZM83.4587 15.2416H80.5515V26.0677H83.4587V15.2416ZM48 11.4952V26.0681H50.8775V16.522H50.9677L57.6881 26.0681H60.1774V11.4952H57.2983V20.988H57.2199L50.5097 11.4952H48ZM65.8336 19.6854C63.1718 19.8469 61.6817 20.9877 61.6817 22.9573C61.6817 24.9063 63.2251 26.2396 65.2556 26.2412C66.5904 26.2412 67.9143 25.5626 68.5119 24.4115H68.5715V26.0718H71.3792V18.629C71.3792 16.4453 69.5973 15.0134 66.8586 15.0134C64.0313 15.0134 62.2691 16.4572 62.1593 18.5582H64.818C64.9576 17.7603 65.6336 17.2146 66.7292 17.2146C67.8249 17.2146 68.5213 17.8009 68.5213 18.8104V19.5263L65.8336 19.6854ZM68.5213 21.3114V22.099C68.5213 23.27 67.4759 24.1084 66.2116 24.1084C65.2258 24.1084 64.5686 23.6033 64.5686 22.7959C64.5686 22.0282 65.1866 21.5318 66.2712 21.4522L68.5213 21.3114ZM76.9347 12.747V15.2417H78.9063V17.4636H76.9347V22.6439C76.9347 23.472 77.3331 23.8658 78.1895 23.8658C78.4257 23.867 78.6616 23.8503 78.8953 23.8157V25.9866C78.4394 26.0759 77.9754 26.1167 77.5111 26.1083C75.0014 26.1083 74.0266 25.2595 74.0266 23.149V17.4636H72.5239V15.2417H74.0274V12.747H76.9347ZM88.1945 26.0677L84.5006 15.2416H87.6173L89.8375 23.4624H89.8971L92.108 15.2416H95.1447L91.4806 26.0677H88.1945ZM100.721 26.3C103.359 26.3 105.272 24.876 105.59 22.7552H102.924C102.656 23.5833 101.839 24.1187 100.774 24.1187C99.2899 24.1187 98.3245 23.0583 98.3245 21.5126V21.3313H105.682V20.4323C105.682 17.1397 103.72 15.0094 100.614 15.0094C97.4578 15.0094 95.4666 17.2416 95.4666 20.7052C95.4666 24.1688 97.4359 26.3 100.721 26.3ZM102.882 19.5231H98.3519C98.4515 18.1699 99.3676 17.1906 100.642 17.1906C101.936 17.1906 102.822 18.1397 102.882 19.5231ZM114.461 26.0681H111.454V11.4952H117.336C120.641 11.4952 122.534 13.262 122.534 16.141C122.534 18.0088 121.578 19.6245 119.924 20.2776L122.952 26.0641H119.546L116.868 20.7342H114.459L114.461 26.0681ZM114.461 18.5243H117.049C118.563 18.5243 119.449 17.6453 119.449 16.2014C119.449 14.787 118.513 13.8785 117.018 13.8785H114.46L114.461 18.5243ZM129.056 15.0094C125.86 15.0094 123.77 17.1397 123.77 20.6447C123.77 24.1991 125.831 26.3 129.056 26.3C132.282 26.3 134.343 24.2094 134.343 20.6447C134.343 17.1302 132.252 15.0094 129.056 15.0094ZM129.056 17.2614C130.47 17.2614 131.386 18.5064 131.386 20.6543C131.386 22.826 130.49 24.0479 129.056 24.0479C127.623 24.0479 126.717 22.826 126.717 20.6543C126.717 18.5032 127.642 17.2614 129.056 17.2614ZM138.834 24.2098H138.775V26.0681H135.906V11.4952H138.814V17.1202H138.874C139.462 15.8379 140.646 15.0702 142.168 15.0702C144.856 15.0702 146.509 17.1608 146.509 20.6547C146.509 24.1486 144.862 26.2399 142.178 26.2399C140.616 26.2399 139.422 25.4723 138.834 24.2098ZM138.804 20.6547C138.804 22.614 139.76 23.8661 141.174 23.8661C142.628 23.8661 143.534 22.6347 143.534 20.6547C143.534 18.6747 142.617 17.4337 141.174 17.4337C139.77 17.4337 138.804 18.716 138.804 20.6547ZM152.913 15.0094C149.717 15.0094 147.626 17.1397 147.626 20.6447C147.626 24.1991 149.687 26.3 152.913 26.3C156.139 26.3 158.2 24.2094 158.2 20.6447C158.2 17.1302 156.109 15.0094 152.913 15.0094ZM152.913 17.2614C154.327 17.2614 155.243 18.5064 155.243 20.6543C155.243 22.826 154.347 24.0479 152.913 24.0479C151.479 24.0479 150.574 22.826 150.574 20.6543C150.574 18.5032 151.499 17.2614 152.913 17.2614ZM163.378 12.747V15.2417H165.348V17.4636H163.378V22.6439C163.378 23.472 163.776 23.8658 164.632 23.8658C164.869 23.867 165.105 23.8502 165.338 23.8157V25.9866C164.882 26.0759 164.418 26.1167 163.954 26.1083C161.444 26.1083 160.47 25.2595 160.47 23.149V17.4636H158.966V15.2417H160.47V12.747H163.378ZM168.446 11C167.569 11 166.893 11.6666 166.893 12.525C166.893 13.373 167.57 14.05 168.446 14.05C169.322 14.05 169.999 13.3833 169.999 12.525C169.999 11.6666 169.323 11 168.446 11ZM169.899 15.2416H166.992V26.0677H169.899V15.2416ZM178.829 19.2709C178.66 18.1301 177.913 17.3219 176.718 17.3219C175.284 17.3219 174.389 18.5542 174.389 20.6448C174.389 22.7751 175.284 23.9859 176.728 23.9859C177.893 23.9859 178.65 23.2787 178.829 22.0973H181.537C181.388 24.6525 179.506 26.2984 176.698 26.2984C173.483 26.2984 171.444 24.1776 171.444 20.6432C171.444 17.1684 173.483 15.0078 176.681 15.0078C179.568 15.0078 181.4 16.8152 181.529 19.2693L178.829 19.2709ZM191.723 18.4833C191.683 16.3824 189.941 15.0094 187.263 15.0094C184.524 15.0094 182.762 16.3625 182.758 18.4213C182.758 20.0171 183.796 21.087 185.817 21.5516L187.788 21.9963C188.744 22.2286 189.102 22.5317 189.102 23.0766C189.102 23.7838 188.435 24.2277 187.33 24.2277C186.175 24.2277 185.469 23.7043 185.329 22.7958H182.491C182.651 24.9063 184.403 26.3 187.25 26.3C190.068 26.3 192 24.8959 192 22.7656C192 21.1491 191.133 20.2907 188.993 19.8063L186.954 19.3616C186.018 19.1396 185.56 18.7761 185.56 18.2407C185.56 17.5438 186.218 17.0793 187.223 17.0793C188.298 17.0793 188.985 17.6146 189.045 18.4833H191.723Z" fill="white"/>
</svg>
